<?xml version="1.0" standalone="no"?>
<!DOCTYPE svg PUBLIC "-//W3C//DTD SVG 20010904//EN"
 "http://www.w3.org/TR/2001/REC-SVG-20010904/DTD/svg10.dtd">
<svg version="1.0" xmlns="http://www.w3.org/2000/svg"
 width="1280.000000pt" height="853.000000pt" viewBox="0 0 1280.000000 853.000000"
 preserveAspectRatio="xMidYMid meet">

<g transform="translate(0.000000,853.000000) scale(0.100000,-0.100000)"
fill="#ffffff" stroke="none">
<path d="M2630 6403 c-28 -27 -31 -38 -60 -213 -17 -102 -35 -194 -40 -206 -5
-13 -20 -23 -42 -27 -49 -8 -189 -69 -302 -131 l-98 -55 -97 72 c-53 40 -136
105 -184 145 -131 107 -110 115 -365 -141 -193 -195 -212 -217 -212 -248 0
-26 29 -81 122 -232 l121 -198 -38 -77 c-21 -42 -53 -122 -71 -177 l-32 -100
-39 -3 c-44 -3 -359 -51 -386 -58 -42 -13 -47 -48 -47 -342 l0 -280 29 -31
c20 -21 38 -31 59 -31 16 0 83 -11 148 -24 66 -13 142 -27 169 -31 28 -3 56
-9 61 -13 6 -4 25 -47 43 -96 17 -48 49 -124 69 -168 l39 -80 -40 -56 c-163
-232 -210 -308 -215 -344 l-5 -39 204 -204 c201 -203 250 -242 286 -228 10 4
83 55 163 113 80 58 159 116 177 128 l31 22 63 -36 c90 -53 254 -129 324 -150
33 -10 61 -19 62 -19 4 -2 42 -190 58 -289 15 -99 28 -131 55 -142 27 -12 544
-42 567 -33 34 13 51 47 72 149 11 52 30 139 42 192 22 94 24 97 53 103 197
40 449 142 524 212 29 28 32 34 22 54 -15 27 -58 66 -83 74 -10 4 -53 -12
-107 -39 -134 -69 -285 -117 -471 -150 -20 -4 -43 -14 -52 -24 -9 -9 -35 -103
-59 -207 -43 -185 -44 -190 -68 -189 -14 1 -91 5 -171 9 l-147 7 -16 76 c-8
43 -25 131 -37 196 -25 136 -41 160 -112 171 -113 17 -240 70 -378 155 -97 60
-134 73 -177 61 -17 -5 -101 -62 -185 -125 -85 -64 -158 -116 -163 -116 -5 0
-70 61 -143 134 -124 124 -134 137 -124 158 6 13 63 98 127 190 64 92 116 177
116 189 0 12 -15 47 -34 78 -46 76 -99 197 -131 303 -28 94 -56 128 -103 128
-22 0 -231 36 -332 58 l-35 7 -1 178 c-1 173 0 179 20 187 12 4 104 19 206 33
218 30 214 27 249 163 26 98 85 234 125 287 44 57 38 88 -48 232 -23 39 -64
107 -91 153 -27 46 -52 85 -57 88 -20 13 0 40 121 164 l129 132 119 -93 c241
-189 230 -181 271 -183 30 0 64 14 163 71 161 93 214 117 329 147 58 16 101
33 111 45 8 10 23 66 33 123 10 56 25 145 33 196 l16 92 163 0 162 0 16 -72
c9 -40 25 -129 37 -197 11 -69 27 -134 35 -147 9 -13 30 -25 52 -29 62 -11
194 -51 259 -79 87 -36 103 -34 152 19 22 24 41 49 41 54 0 31 -105 85 -254
131 l-90 27 -13 49 c-7 27 -24 114 -38 194 -29 165 -44 206 -81 220 -14 6
-140 10 -284 10 l-260 0 -30 -27z"/>
<path d="M4650 5150 l0 -640 145 0 145 0 0 403 c1 304 3 397 12 382 6 -11 36
-58 67 -105 31 -47 60 -93 66 -102 26 -43 119 -188 220 -343 62 -93 120 -185
130 -202 l19 -33 148 0 148 0 0 640 0 640 -140 0 -141 0 3 -405 c2 -223 1
-405 -2 -405 -3 0 -21 26 -40 58 -18 31 -63 102 -99 158 -36 56 -136 212 -221
347 l-155 246 -152 1 -153 0 0 -640z"/>
<path d="M6020 5150 l0 -640 419 0 420 0 3 121 c2 66 1 123 -1 125 -2 2 -127
4 -278 4 l-273 0 0 135 0 135 245 0 245 0 0 120 0 120 -245 0 -245 0 0 140 0
140 278 0 277 0 -3 120 -3 120 -420 0 -419 0 0 -640z"/>
<path d="M7040 5786 c0 -5 109 -319 154 -446 24 -65 81 -228 176 -505 29 -82
62 -179 75 -215 13 -36 26 -75 30 -87 6 -23 8 -23 195 -23 l189 0 10 33 c8 28
59 174 226 657 24 69 79 230 124 358 l80 233 -157 -3 -157 -3 -32 -100 c-17
-55 -55 -174 -83 -265 -28 -91 -62 -196 -75 -235 -13 -38 -45 -139 -71 -222
l-48 -153 -27 78 c-15 42 -50 149 -78 237 -28 88 -88 274 -133 412 l-83 253
-157 0 c-87 0 -158 -2 -158 -4z"/>
<path d="M8480 5775 c0 -8 0 -295 0 -637 l0 -623 140 -3 140 -3 0 641 0 640
-140 0 c-118 0 -140 -2 -140 -15z"/>
<path d="M8966 5778 c4 -7 51 -83 104 -168 53 -85 138 -221 189 -302 l91 -148
-124 -197 c-69 -109 -161 -255 -205 -326 l-80 -127 166 2 167 3 127 212 126
213 126 -213 125 -212 171 -3 c94 -1 171 0 171 3 0 3 -33 56 -73 118 -154 236
-336 530 -332 537 2 3 81 131 177 285 96 154 182 292 192 308 l18 27 -169 0
-168 0 -33 -57 c-18 -32 -43 -76 -56 -98 -13 -22 -47 -80 -76 -130 -28 -49
-55 -94 -59 -98 -7 -7 -62 80 -200 320 l-36 62 -173 1 c-136 0 -172 -3 -166
-12z"/>
<path d="M10685 5780 c-3 -5 -12 -29 -19 -52 -8 -24 -51 -149 -96 -278 -45
-129 -103 -298 -130 -375 -26 -77 -80 -232 -119 -344 -39 -113 -71 -208 -71
-213 0 -5 64 -7 143 -6 l142 3 41 120 41 120 236 3 235 2 17 -52 c10 -29 29
-86 42 -125 l26 -73 148 0 c82 0 149 4 149 8 0 5 -30 91 -66 193 -37 101 -86
240 -110 309 -23 69 -68 197 -99 285 -31 88 -63 178 -70 200 -25 75 -94 266
-100 275 -8 13 -332 13 -340 0z m249 -559 c42 -124 76 -226 76 -227 0 -2 -70
-3 -155 -2 -85 1 -155 5 -155 9 0 5 128 392 145 438 3 8 7 12 9 10 2 -2 38
-105 80 -228z"/>
<path d="M2718 5763 c-21 -3 -30 -12 -34 -31 -3 -15 -8 -35 -11 -45 -4 -16 -1
-18 19 -12 28 9 21 2 47 53 12 23 18 41 14 41 -5 -1 -20 -4 -35 -6z"/>
<path d="M2735 5667 c-49 -10 -91 -20 -94 -23 -4 -4 35 -280 44 -311 3 -8 15
-9 42 -3 21 5 64 13 96 20 49 10 57 15 57 34 0 12 -2 25 -5 28 -3 2 -33 1 -67
-4 -33 -4 -62 -7 -63 -6 -2 2 -6 17 -9 35 -7 31 -7 31 44 40 28 4 51 11 50 16
0 4 0 19 0 33 0 19 -4 24 -17 20 -10 -3 -34 -8 -54 -11 -35 -6 -36 -5 -43 26
-8 39 -1 44 66 52 28 4 53 8 55 11 2 2 1 17 -4 32 l-8 29 -90 -18z"/>
<path d="M2985 5623 c-4 -32 -13 -100 -21 -150 -19 -127 -20 -123 21 -123 30
0 35 3 35 24 0 13 3 38 6 55 8 40 40 43 54 4 32 -88 41 -101 76 -105 39 -5 39
1 3 81 -11 24 -19 44 -17 46 2 1 14 8 26 14 36 19 56 75 42 117 -15 44 -53 70
-115 79 -28 3 -62 9 -77 11 -26 5 -27 3 -33 -53z m143 -29 c24 -17 29 -53 10
-72 -15 -15 -84 -16 -93 -2 -4 6 -4 29 0 50 6 35 10 40 34 40 14 0 37 -7 49
-16z"/>
<path d="M2438 5588 c-27 -9 -27 -10 -30 -114 l-3 -104 -83 56 c-79 52 -86 55
-113 44 -16 -7 -29 -16 -29 -20 0 -4 31 -66 70 -136 38 -71 71 -132 73 -137 3
-10 57 13 57 25 0 4 -18 42 -40 84 -22 43 -39 78 -37 80 2 2 36 -19 77 -46 88
-59 88 -59 90 70 l0 85 37 -80 c47 -105 48 -106 84 -93 16 6 29 13 27 17 -22
46 -130 250 -140 262 -10 13 -19 15 -40 7z"/>
<path d="M3363 5531 c-82 -51 -110 -167 -58 -244 46 -66 133 -89 203 -53 l33
17 -21 30 c-20 27 -23 28 -43 14 -34 -24 -75 -19 -108 14 -32 32 -37 69 -16
111 16 31 73 70 102 70 29 0 85 -52 85 -79 0 -17 6 -21 35 -21 22 0 35 5 35
13 -1 27 -47 98 -79 122 -44 32 -120 35 -168 6z"/>
<path d="M3690 5319 c-30 -39 -74 -95 -97 -124 -49 -59 -51 -70 -22 -86 17 -8
24 -8 34 3 34 35 185 221 185 227 0 4 -10 17 -23 29 l-23 22 -54 -71z"/>
<path d="M2000 5258 c-87 -44 -127 -147 -87 -224 56 -108 224 -116 293 -15 54
79 14 209 -77 245 -53 21 -76 20 -129 -6z m136 -81 c29 -26 36 -40 37 -71 1
-54 -45 -96 -107 -96 -37 0 -48 5 -70 31 -14 17 -26 38 -27 47 -3 46 5 69 32
95 42 39 88 37 135 -6z"/>
<path d="M2779 5210 c-264 -42 -507 -235 -613 -489 -85 -201 -81 -460 10 -659
78 -171 222 -319 389 -400 129 -63 248 -86 403 -79 223 10 395 89 553 253 80
84 136 178 180 304 33 93 33 99 33 255 0 126 -4 173 -18 220 -55 181 -158 331
-299 439 -142 107 -274 153 -460 160 -67 3 -147 1 -178 -4z m306 -91 c209 -41
418 -210 511 -414 31 -67 64 -186 64 -232 l0 -33 -144 0 -145 0 -24 -31 -24
-31 -47 129 c-63 172 -62 170 -85 182 -26 15 -48 -7 -57 -57 -11 -64 -84 -436
-90 -462 -8 -31 -26 72 -109 630 -18 123 -28 150 -54 150 -26 0 -39 -19 -45
-65 -27 -209 -60 -444 -70 -505 l-12 -75 -12 75 c-7 41 -19 122 -28 180 -19
131 -27 152 -56 148 -17 -2 -31 -27 -71 -123 -27 -66 -53 -126 -59 -132 -8
-10 -55 -13 -173 -13 -89 0 -164 2 -167 5 -8 8 11 113 32 184 78 251 301 451
550 491 41 6 82 13 90 15 23 6 168 -5 225 -16z m-174 -654 c11 -77 29 -198 40
-270 10 -71 25 -179 33 -239 15 -117 31 -150 64 -130 19 12 20 18 57 234 15
85 37 211 51 279 13 68 24 135 24 148 0 44 17 22 45 -59 45 -133 60 -158 95
-158 24 0 34 8 56 45 l26 45 129 0 129 0 0 -33 c0 -52 -34 -175 -69 -247 -90
-187 -250 -324 -452 -386 -72 -22 -103 -26 -214 -26 -119 0 -138 2 -227 31
-271 88 -475 332 -505 604 l-6 57 186 0 c214 0 204 -4 247 110 12 33 24 59 26
58 1 -2 10 -46 18 -98 64 -395 60 -380 96 -380 10 0 22 6 27 13 5 6 24 113 41
237 38 270 55 364 59 330 2 -14 13 -88 24 -165z"/>
<path d="M3801 5188 c-60 -31 -83 -65 -89 -132 -9 -108 58 -188 157 -188 55 0
94 17 136 62 28 29 30 37 30 103 0 82 -15 112 -76 146 -58 33 -107 36 -158 9z
m148 -77 c25 -24 31 -37 31 -71 0 -34 -6 -48 -34 -76 -28 -28 -42 -34 -76 -34
-101 0 -134 120 -52 187 39 33 92 31 131 -6z"/>
<path d="M1767 4933 c-73 -56 -85 -135 -32 -215 28 -42 90 -77 135 -78 40 0
113 42 137 79 26 38 31 116 11 144 -12 15 -15 15 -36 -1 -20 -15 -22 -22 -13
-46 8 -21 7 -34 -4 -56 -19 -36 -43 -50 -87 -50 -83 1 -141 115 -85 168 13 12
31 22 40 22 21 0 30 16 22 40 -9 28 -45 25 -88 -7z"/>
<path d="M6350 4171 c-102 -15 -194 -91 -246 -205 -23 -51 -26 -66 -22 -154 3
-84 7 -105 32 -155 59 -116 159 -180 293 -185 72 -4 88 -1 143 24 43 19 76 44
111 83 58 65 79 124 79 223 l0 68 -162 0 -163 0 3 -60 4 -60 84 0 84 0 0 -29
c0 -60 -82 -121 -164 -121 -120 0 -197 86 -198 224 -1 77 19 132 64 172 74 67
230 54 288 -24 l23 -30 45 32 c25 17 47 37 49 43 7 19 -71 97 -120 121 -43 21
-133 43 -166 41 -9 -1 -36 -5 -61 -8z"/>
<path d="M4657 4163 c-4 -3 -7 -159 -7 -345 l0 -338 215 0 215 0 0 70 0 70
-145 0 -146 0 3 73 3 72 128 3 127 3 0 59 0 60 -130 0 -130 0 0 70 0 70 145 0
145 0 0 70 0 70 -208 0 c-115 0 -212 -3 -215 -7z"/>
<path d="M5304 4156 c-2 -6 -3 -160 -2 -341 l3 -330 67 -3 68 -3 2 223 3 223
85 -133 c47 -73 110 -172 141 -220 l55 -87 75 0 74 0 0 340 0 340 -67 3 -68 3
-2 -228 -3 -228 -127 200 c-174 274 -156 255 -234 254 -39 -1 -67 -6 -70 -13z"/>
<path d="M6945 4157 c-3 -6 -4 -161 -3 -342 l3 -330 213 -3 212 -2 0 70 0 70
-140 0 -140 0 0 76 0 75 125 -3 125 -3 0 63 0 62 -124 0 -124 0 -4 70 -3 70
143 0 142 0 0 70 0 70 -210 0 c-160 0 -212 -3 -215 -13z"/>
<path d="M7595 4162 c-3 -3 -5 -158 -5 -344 l0 -338 70 0 70 0 2 222 3 221 44
-69 c25 -38 89 -138 144 -222 l100 -153 71 3 71 3 0 340 0 340 -67 3 -68 3 -2
-228 -3 -228 -35 55 c-71 112 -229 356 -245 378 -15 20 -24 23 -81 21 -35 -1
-66 -4 -69 -7z"/>
<path d="M8395 4158 c-3 -7 -4 -162 -3 -343 l3 -330 67 -3 67 -3 3 143 3 143
135 0 135 0 3 -142 3 -143 69 0 70 0 -2 343 -3 342 -65 0 -65 0 -3 -137 -3
-138 -139 0 -140 0 0 138 0 137 -65 3 c-47 2 -67 -1 -70 -10z"/>
<path d="M9360 4167 c0 -1 -13 -40 -29 -87 -143 -414 -201 -586 -201 -592 0
-5 31 -8 69 -8 l70 0 22 70 23 70 126 0 126 0 23 -70 22 -70 70 0 c49 0 69 4
69 13 0 6 -13 50 -29 97 -50 147 -189 544 -196 563 -6 14 -20 17 -86 17 -43 0
-79 -1 -79 -3z m119 -270 c52 -175 57 -157 -38 -157 -44 0 -81 4 -81 9 0 5 16
60 35 121 19 61 35 118 35 126 0 39 18 2 49 -99z"/>
<path d="M9930 3825 l0 -345 70 0 70 0 0 125 0 125 45 0 44 0 63 -122 63 -123
78 -3 c42 -2 77 1 77 5 0 4 -31 64 -69 133 l-69 124 31 22 c134 92 118 299
-28 374 -46 23 -60 25 -212 28 l-163 2 0 -345z m317 189 c19 -14 29 -32 31
-54 8 -82 -26 -110 -138 -110 l-70 0 0 96 0 96 74 -4 c56 -2 82 -9 103 -24z"/>
<path d="M10637 4164 c-4 -4 -7 -160 -7 -346 l0 -338 70 0 70 0 0 343 0 344
-63 2 c-34 1 -66 -1 -70 -5z"/>
<path d="M11185 4160 c-4 -6 -10 -23 -15 -38 -5 -15 -38 -112 -75 -217 -36
-104 -81 -235 -100 -290 -18 -55 -37 -108 -41 -118 -6 -16 0 -18 67 -15 l73 3
22 65 21 65 131 3 131 3 21 -71 21 -70 69 0 c39 0 70 1 70 3 0 7 -24 79 -85
252 -36 105 -85 245 -108 313 l-42 122 -77 0 c-42 0 -80 -5 -83 -10z m125
-278 c22 -70 40 -131 40 -135 0 -4 -39 -7 -86 -7 -67 0 -85 3 -81 13 3 8 22
68 43 135 20 67 39 122 40 122 2 0 22 -58 44 -128z"/>
<path d="M3889 4083 c-60 -37 -80 -131 -36 -170 12 -11 30 -23 40 -26 29 -11
82 18 106 57 23 37 48 45 69 24 21 -21 13 -46 -22 -74 -33 -26 -33 -29 -19
-51 l16 -23 31 19 c81 52 87 162 11 198 -33 16 -37 16 -70 0 -19 -9 -45 -32
-57 -52 -29 -43 -68 -49 -68 -10 0 24 42 75 62 75 5 0 1 11 -8 25 -19 29 -21
30 -55 8z"/>
<path d="M2009 3889 c-11 -11 -25 -34 -31 -50 -8 -24 -14 -28 -34 -23 -34 9
-67 -2 -103 -32 -25 -20 -31 -34 -31 -64 0 -43 11 -55 77 -80 40 -15 49 -23
51 -46 3 -26 17 -43 33 -44 4 0 10 16 13 35 7 33 9 35 46 35 39 0 41 2 40 38
0 4 -15 7 -33 7 -29 0 -32 3 -32 30 0 29 1 29 46 26 39 -2 50 1 63 21 9 12 16
40 16 61 0 31 -7 46 -34 73 -39 39 -58 42 -87 13z m59 -51 c15 -15 16 -54 2
-63 -17 -11 -50 5 -50 25 0 45 23 63 48 38z m-112 -109 c-3 -17 -6 -38 -6 -45
0 -11 -5 -11 -27 -2 -43 18 -56 33 -48 57 5 17 14 21 47 21 40 0 40 0 34 -31z"/>
<path d="M3777 3839 c-140 -24 -177 -215 -57 -296 42 -29 142 -32 180 -6 84
57 104 162 45 238 -41 55 -98 77 -168 64z m91 -75 c59 -41 64 -124 10 -169
-72 -60 -168 -3 -168 100 0 52 36 85 92 85 24 0 54 -7 66 -16z"/>
<path d="M2262 3608 c-12 -6 -27 -27 -33 -48 -12 -39 -3 -67 42 -138 24 -38
16 -56 -22 -50 -20 2 -39 25 -52 61 -1 5 -15 5 -31 1 -24 -6 -27 -10 -21 -33
9 -36 51 -78 92 -92 57 -18 123 22 123 76 0 11 -16 46 -37 79 -27 44 -34 63
-26 74 19 31 33 27 67 -22 9 -14 20 -17 39 -12 24 6 25 8 16 36 -23 65 -96 97
-157 68z"/>
<path d="M3462 3590 c-101 -62 -93 -216 16 -288 14 -9 53 -19 87 -22 61 -5 64
-8 54 -50 -7 -27 37 -23 60 6 28 35 24 66 -9 75 -14 4 -19 7 -12 8 17 1 51 78
52 114 0 25 -3 28 -27 25 -21 -2 -27 -9 -30 -33 -4 -35 -54 -85 -84 -85 -90 0
-146 133 -83 197 25 25 52 27 95 9 24 -10 34 35 12 52 -25 18 -94 15 -131 -8z"/>
<path d="M2460 3407 c-19 -56 -42 -121 -52 -144 l-17 -42 69 -26 c37 -14 81
-27 96 -28 24 -2 29 2 29 22 0 19 -10 27 -53 43 -50 19 -53 22 -47 46 9 38 10
38 62 19 25 -9 47 -16 49 -15 1 2 5 15 9 29 6 25 3 28 -39 44 -40 15 -45 21
-40 39 10 35 18 37 72 20 58 -19 60 -18 64 16 3 21 -6 26 -77 52 -44 15 -82
28 -85 28 -3 0 -21 -46 -40 -103z"/>
<path d="M3265 3488 c-11 -6 -21 -12 -23 -13 -2 -2 75 -215 98 -273 9 -22 11
-22 40 -7 l30 15 -36 98 c-20 53 -43 118 -52 145 -17 49 -24 54 -57 35z"/>
<path d="M3146 3451 c-3 -5 -9 -49 -12 -97 -10 -136 -15 -138 -59 -29 -21 53
-41 98 -45 100 -3 2 -19 0 -36 -3 l-31 -7 33 -70 c18 -38 49 -105 69 -148 36
-78 36 -78 68 -72 18 4 33 8 34 9 1 1 7 41 13 88 6 48 16 121 23 162 l13 76
-32 0 c-18 0 -35 -4 -38 -9z"/>
<path d="M2711 3289 c-23 -162 -23 -169 25 -169 19 0 23 8 28 54 7 50 9 54 28
47 13 -5 28 -27 40 -59 18 -49 21 -52 55 -52 24 0 34 4 30 13 -3 6 -13 31 -22
55 l-18 43 26 27 c33 35 42 72 27 117 -14 44 -45 59 -136 69 l-60 7 -23 -152z
m156 71 c2 0 3 -13 3 -28 0 -37 -17 -52 -57 -52 -32 0 -33 1 -33 44 0 49 10
57 55 44 16 -4 31 -8 32 -8z"/>
</g>
</svg>
